<svg xmlns="http://www.w3.org/2000/svg" viewBox="0 0 3118.11 1155.36"><defs><style>.cls-1{fill:#fff;}</style></defs><title>Hello_Sixy_White_Outline</title><g id="Layer_2" data-name="Layer 2"><g id="Layer_1-2" data-name="Layer 1"><path class="cls-1" d="M328.14,162.87c-18.92-29.74-39.59-69.63-21.32-104.4C322.21,29.17,359,9.94,391.59,10.11c18.71.1,33.86,10.71,43.31,26.41,10.15,16.86,12.37,36.89,12.73,56.2.8,42.66-2.45,85.58-6.73,128-4.9,48.56-11.95,96.87-19.76,145-1,6.35,8.68,9.08,9.72,2.68,7.52-46.36,14.34-92.84,19.28-139.55,4.87-46,8.85-92.77,7.51-139.06-.59-20.36-3.56-41.43-14.45-59.06C433.38,14.87,418.11,2.93,399.27.55,380.13-1.87,359.72,4,342.62,12.35,327.1,19.93,313.08,31,303.12,45.2,275.52,84.52,296.54,132,319.43,168c3.47,5.46,12.2.41,8.7-5.09Z"/><path class="cls-1" d="M318.74,165.41Q309.2,273.92,305,382.79c-.25,6.49,9.83,6.48,10.08,0Q319.28,274,328.82,165.41c.57-6.46-9.52-6.42-10.08,0Z"/><path class="cls-1" d="M310,377.75c-41.95,5-83.83,10.55-125.76,15.79-35.33,4.42-72.81,5.89-105.75,20.64-29.76,13.32-55.28,39.62-69,69.16-9.94,21.39-12.66,45.31-5.47,68,14.43,45.48,58.79,76.56,100.85,94.23,20.8,8.74,43,15,65.59,16.48,28.43,1.85,57.6-7.34,83.35-18.55,69.43-30.22,120.89-93.21,140.23-166a262,262,0,0,0,5.65-27.18c1-6.35-8.73-9.08-9.72-2.68C378.87,519.52,337.07,584.88,273.95,622a231.59,231.59,0,0,1-48.29,21.35c-13.28,4.15-27.32,8-41.28,8.76-19.78,1.06-39.7-3.21-58.4-9.35C84.49,629.1,40.68,602.87,19.82,563.06c-9.85-18.8-12.54-40.21-6.75-60.71,7.9-27.95,29.17-54.12,53.16-69.94,28.49-18.79,62.59-22,95.59-26,39.9-4.86,79.75-10.12,119.64-15.08q14.28-1.77,28.56-3.48c6.36-.76,6.44-10.85,0-10.08Z"/><path class="cls-1" d="M272.77,455.37c-25.54,2.48-50.85,7.21-76.35,10.14-12,1.38-24.34,3.74-34.17,11.31a43.09,43.09,0,0,0-15.59,25.67c-4.37,22.13,7.83,43.47,28.07,52.82,10.63,4.91,23.67,7.09,34.89,2.87S230.1,543.93,238,535.07a183.13,183.13,0,0,0,39.66-73.32c1.71-6.27-8-8.94-9.72-2.68a173.68,173.68,0,0,1-28,57.77,158.64,158.64,0,0,1-22.44,24.58c-8.76,7.7-18.56,10.53-30,7.73-18.82-4.58-33.9-21.71-31.39-41.72,1.14-9.07,5.68-17.91,13.19-23.29,8.82-6.32,20.13-7.87,30.65-8.93,24.42-2.47,48.5-7.4,72.92-9.77,6.4-.62,6.46-10.71,0-10.08Z"/><path class="cls-1" d="M394.38,457.14c28.92,2,56.45-5.72,81.29-20.36,5.59-3.29.52-12-5.09-8.7-23.43,13.81-48.94,20.85-76.2,19-6.47-.44-6.45,9.64,0,10.08Z"/><path class="cls-1" d="M428.54,371.44A224.17,224.17,0,0,1,484,353.06c6.36-1.23,3.67-11-2.68-9.72a234.14,234.14,0,0,0-57.86,19.4c-5.83,2.83-.73,11.53,5.09,8.7Z"/><path class="cls-1" d="M487.51,349.53C499,304.42,509.26,259,520.74,213.93c9-35.26,18.62-71.43,38.13-102.54C578.73,79.72,611,54.86,649.7,54.46c18.43-.19,36.81,5.7,50.2,18.67,11.77,11.39,19.77,27.28,20.46,43.78a49.51,49.51,0,0,1-23.81,44.62c-15.2,9.41-35,12-51.48,4.36-5.85-2.7-11,6-5.09,8.7,32,14.78,73.89-.59,86.7-34.05,13.44-35.11-9.5-75.82-42.67-89.67-39.29-16.41-84.47-.31-113.08,28.82-28,28.53-42.26,67.46-52.92,105.21-15.11,53.52-26.56,108.06-40.23,162-1.6,6.29,8.12,9,9.72,2.68Z"/><path class="cls-1" d="M644.63,170.26c-22.92,35.4-44.56,75.38-44.46,118.7,0,6.49,10.1,6.5,10.08,0-.11-41.51,21.14-79.74,43.08-113.61,3.54-5.46-5.19-10.52-8.7-5.09Z"/><path class="cls-1" d="M605.21,294c12.23-.87,22.28,8.48,24.4,19.35,1.44,7.42.53,15.32-1.31,22.58-7,27.41-28.55,48.26-51.81,62.81-5.49,3.43-.43,12.16,5.09,8.7,22.43-14,42.55-32.94,52.76-57.8,5.47-13.33,8.84-30.34,3.47-44.27-5-13-18.56-22.45-32.59-21.45-6.43.46-6.48,10.54,0,10.08Z"/><path class="cls-1" d="M574.17,401.75c-5.55,14-6.52,29.73-7.78,44.64-1.24,14.74-3.54,29.79,1.47,44.13a51.38,51.38,0,0,0,11.65,19.13c6,6.08,13.24,6.62,20.88,3.27,14.57-6.39,27.34-17.06,38.46-28.27,13.06-13.16,24.33-28,35.43-42.75,3.89-5.19-4.85-10.22-8.7-5.09-10.76,14.35-21.76,28.63-34.47,41.33A144.35,144.35,0,0,1,609.9,496a98.2,98.2,0,0,1-11.44,6.72c-5.31,2.61-8.8,3.25-12.94-1.42-11.89-13.41-11.21-30.48-9.7-47.17s1.88-34,8.08-49.7c2.39-6-7.36-8.65-9.72-2.68Z"/><path class="cls-1" d="M457,437.24c-7.69,27.59-12,56.41-14.81,84.89-3,30.8-2.1,64.42,16.35,90.69,7.56,10.77,17.53,19.91,29.67,25.21,13.77,6,28.93,6.55,43.54,3.66,29.15-5.77,56-23.67,78.53-42.32a267.75,267.75,0,0,0,63.23-76.27c3.15-5.68-5.55-10.77-8.7-5.09a259.48,259.48,0,0,1-50.71,64.66c-19.94,18.43-43.59,35.54-69.3,44.85-13.61,4.93-28.59,7.77-42.93,4.47-12.36-2.84-22.92-10-31.06-19.65-19.46-23-21.39-54.68-19.14-83.41,2.34-29.83,7-60.18,15.06-89,1.74-6.26-8-8.93-9.72-2.68Z"/><path class="cls-1" d="M675,439.34A232,232,0,0,1,713.56,332.5c21.72-32.35,53-62.23,89.65-76.68,18.81-7.41,39.51-10.14,59.12-4.26a78.72,78.72,0,0,1,55.43,89.88c-3.77,21-16.42,38.17-30.6,53.5-29.45,31.83-71.74,59.89-116.6,59.37-6.49-.07-6.49,10,0,10.08,43.43.5,84.45-24,114.89-53.32,15.73-15.14,31-32.89,38.47-53.68a90.42,90.42,0,0,0-1.22-63.27c-15.81-39.51-58-61.32-99.39-54.42C780.79,246.78,743,278.14,716.87,311a244,244,0,0,0-52,128.3c-.61,6.45,9.47,6.41,10.08,0Z"/><path class="cls-1" d="M783.61,400.65a83.75,83.75,0,0,1,9.62-46.58c6.11-11.29,19.59-32,34.73-22.69,16,9.85,7,31.36-5.27,39.84-13.1,9.06-28.95,9.52-44.25,11.09-6.39.65-6.46,10.74,0,10.08,15.41-1.58,31.22-2.17,45.09-9.85,13.3-7.37,23.94-21,23-36.89-.89-14.45-12.75-27.61-27.93-26.77s-26.43,16.61-33.22,28.61a93.37,93.37,0,0,0-11.82,53.15c.51,6.42,10.59,6.48,10.08,0Z"/><path class="cls-1" d="M659.61,530c4.21,23.39,15.74,44.89,34.06,60.23,16.74,14,37.38,22.74,58.7,27a158.81,158.81,0,0,0,58.21,1c24.82-4.38,49.36-15,71.47-26.76,32-17,61-39.9,84-67.88,4.1-5-3-12.14-7.13-7.13-36.23,43.94-88,76.42-143.24,90.37C780.41,615.75,738.12,609,708,588.5c-21.09-14.36-34.15-36.24-38.63-61.18-1.15-6.37-10.86-3.67-9.72,2.68Z"/><path class="cls-1" d="M765.53,459.36c.24,18.39,8,35.89,22.39,47.58,13.88,11.31,29,13.84,46.43,10.84A102.28,102.28,0,0,0,884.65,494c16-14.17,31.59-28.85,45.38-45.19s25.69-34.53,36.84-53c3.37-5.56-5.35-10.64-8.7-5.09-9,14.92-18.38,29.73-29.18,43.45a352.63,352.63,0,0,1-36.3,38.85c-6.95,6.51-13.86,13.7-21.68,19.16a94.16,94.16,0,0,1-21.86,11.15c-15.36,5.55-32.9,9.1-47.77.66-16.16-9.17-25.54-26.28-25.78-44.69-.08-6.48-10.16-6.5-10.08,0Z"/><path class="cls-1" d="M967.38,394.66c7.05-40.91,15.24-81.59,23.52-122.27,4.34-21.32,8.63-42.65,12.73-64,4.28-22.29,8.49-44.81,17.05-65.93a181,181,0,0,1,32.13-51.77c13.2-14.89,29.16-28.8,48.41-35,16.9-5.45,37-4.15,51.17,7.38,15.7,12.73,16.88,33.78,14.62,52.39-1.41,11.59-4,23.11-6.51,34.51-2.64,12-5.69,24-10.24,35.49-8.1,20.4-22.12,40.13-43,48.87-5.89,2.47-3.3,12.23,2.68,9.72,43.42-18.21,55.42-66.53,63.75-108.35,4-19.9,7.59-41.85-.63-61.19-7.64-18-24.82-28.86-43.8-31.42-42.66-5.75-79,29.89-100.56,62.6-26.93,40.86-32.62,89.72-42,136.65-10,49.84-20.43,99.57-29.06,149.67-1.09,6.34,8.62,9.07,9.72,2.68Z"/><path class="cls-1" d="M1111,233.44c-10.55,24.6-17.39,50.78-23.66,76.74q-10.46,43.31-17.66,87.34c-1.83,11.21-3.51,22.45-4.78,33.74-.74,6.56-1.72,13.44-1.18,20.06,1.33,16.09,24.21,17.33,35.9,14.33,32.62-8.37,52.83-42.07,64.65-71,2.45-6-7.29-8.61-9.72-2.68-10,24.5-26.7,53.12-53.18,62.59-6.82,2.44-14.53,3.7-21.43,1.2-2.48-.9-4-2.46-6-4.08-.83-.65-.09.56-.08-.06s0-.56,0,.17c0-.5-.1-1-.11-1.51-.18-16.9,3-34,5.76-50.64q6.63-40.39,16-80.27c6.39-27.22,13.14-55.07,24.19-80.84,2.53-5.9-6.15-11-8.7-5.09Z"/><path class="cls-1" d="M957.48,520c-3.42,29.62.07,71.78,30.79,86.47,35.39,16.92,75.74,7.7,105.81-15.42,19.33-14.86,34.78-34.13,47.42-54.86,3.39-5.55-5.33-10.62-8.7-5.09-19,31.17-46.35,61.72-82.94,71.3a86.43,86.43,0,0,1-50.22-2.2c-15.21-5.24-24.38-16.53-29-31.73-4.71-15.59-5-32.41-3.11-48.48.74-6.43-9.34-6.38-10.08,0Z"/><path class="cls-1" d="M1164.27,394.66c7.57-41.59,17.56-82.59,27.54-123.65,10.81-44.49,20.66-89.5,39.73-131.37C1248.24,103,1275,61.78,1319,57.07c18.38-2,37.46,4.32,49.76,18.46,14.61,16.79,12.29,39.5,5.33,59.08-7.47,21-19,41.52-31.65,59.83s-28.35,34.73-47.7,46.14c-5.58,3.29-.52,12,5.09,8.7,36.71-21.64,61-59.67,78.14-97.7,9.06-20.06,16.44-43.64,8.55-65.33-6.65-18.28-22.79-31.51-41.21-36.93-43.78-12.88-84.14,19.45-106.08,54.32-25.59,40.67-38.88,88.56-50,134.86-12.21,51-25.29,101.83-34.69,153.46-1.15,6.34,8.56,9.06,9.72,2.68Z"/><path class="cls-1" d="M1300.61,238.39c-14,48.39-24.58,97.7-35.23,146.91-5.39,24.91-12.59,50.13-14.28,75.64-.69,10.33-1.09,22.33,3.91,31.79,4.75,9,14.17,12.53,23.78,9.21,11.74-4.06,22.61-13.47,31.89-21.47a173.61,173.61,0,0,0,27.91-30.55c3.78-5.29-5-10.33-8.7-5.09a164.08,164.08,0,0,1-48,44.38c-4.05,2.45-9.58,5.65-14.29,3.06-3.71-2-5.13-7-5.9-10.88-2.2-10.93-.7-23.21,1-34.11,3.48-22.41,9.19-44.57,14-66.73s9.62-44.19,14.76-66.2c5.73-24.56,11.85-49,18.87-73.27,1.81-6.24-7.92-8.91-9.72-2.68Z"/><path class="cls-1" d="M1133.55,524c-6.77,37.94,14.36,75.36,50.83,88.34,39,13.87,77.55-7.87,107.54-31.32a421.09,421.09,0,0,0,53.34-49.84c4.33-4.81-2.77-12-7.13-7.13a422.68,422.68,0,0,1-41.39,40.14c-13.94,11.76-28.63,22.94-44.93,31.24-15.89,8.09-34.05,13.25-52,10.47a69.29,69.29,0,0,1-42.15-23.76c-12.71-15.16-17.88-36.08-14.42-55.46,1.13-6.34-8.58-9.07-9.72-2.68Z"/><path class="cls-1" d="M1339.09,448.72c8-49.91,32.42-96.33,68.43-131.73a230.27,230.27,0,0,1,60.66-43c13.16-6.39,28.3-12,43-7.64,13.16,3.89,20.43,15.27,19.19,28.84-2.72,29.87-33.26,51.91-60,59-6.27,1.66-3.61,11.38,2.68,9.72,27.51-7.28,54.28-26.87,64.26-54.28,4.62-12.69,5-27.88-3.24-39.21-8.09-11.12-22.13-16.18-35.58-15.66-16.1.62-31.31,8-45.2,15.62a239.85,239.85,0,0,0-35.14,23.68,250.22,250.22,0,0,0-55.47,63.13A242.53,242.53,0,0,0,1329.37,446c-1,6.35,8.7,9.08,9.72,2.68Z"/><path class="cls-1" d="M1472.32,355.07c-15.48,25.62-25.52,55.17-27.26,85.14-.84,14.39-.1,30.14,5.65,43.54,5.22,12.18,16.91,23.26,31,22.26,15.13-1.07,26.22-14.21,35.46-24.84,4.24-4.87-2.86-12-7.13-7.13-8.16,9.38-20.66,25.94-35.08,21.06-16.3-5.51-19.33-26.43-20-41.17-1.42-32.77,9.18-65.93,26-93.78,3.36-5.57-5.35-10.64-8.7-5.09Z"/><path class="cls-1" d="M1518.5,476.27c-16.58-44-16.43-95.72.39-139.6,2.32-6.06-7.42-8.69-9.72-2.68-17.37,45.34-17.51,99.53-.39,145,2.27,6,12,3.41,9.72-2.68Z"/><path class="cls-1" d="M1539.45,288.69c4.28-5.84,10.33-8.26,17.32-9.06a106.75,106.75,0,0,1,21-.74c15.49,1.32,26.95,10.38,32.93,24.51,5.48,12.95,6.48,27.34,6.23,41.23a233.22,233.22,0,0,1-6.79,51.82,237,237,0,0,1-21.58,55.77c-3.08,5.71,5.62,10.8,8.7,5.09a246.61,246.61,0,0,0,29.79-116.45c0-15.59-2-31.79-9.18-45.84-7.73-15.15-21.51-24.19-38.34-26a102.05,102.05,0,0,0-27.22,1.15,32.29,32.29,0,0,0-21.58,13.47c-3.84,5.24,4.91,10.27,8.7,5.09Z"/><path class="cls-1" d="M1591.59,459.63c19.82,6.23,43,3.08,58.07-12,8.47-8.49,12.93-19.84,20.37-29.08,7-8.68,20-16.63,29.79-7.32,9.52,9.05,7.12,23.76,3.73,35a123,123,0,0,1-15.08,31.65c-13.07,20-31.36,38.51-52,50.7-22.06,13-52.4,18-73.23-.31-4.86-4.26-12,2.84-7.13,7.13,19.47,17.08,47.47,18.51,70.82,9.08,24.84-10,46.1-29.59,62.35-50.54a146.56,146.56,0,0,0,19.84-33.59c5.24-12.62,9.7-27.3,6.36-41-2.66-10.88-11.12-20.67-22.59-22.21-12.46-1.67-23.81,6.31-31.13,15.69-9.17,11.76-14.36,26.64-28,34.25-12.1,6.75-26.54,7-39.53,2.87-6.2-2-8.86,7.78-2.68,9.72Z"/><path class="cls-1" d="M1335.79,529.74c10.49,34.64,39,61.77,73.26,72.79,37.08,11.93,76.34.61,107.65-20.81a181.23,181.23,0,0,0,47.35-47.39c3.67-5.37-5.06-10.42-8.7-5.09-20.53,30.08-51.78,54.69-87.18,64.39a100.47,100.47,0,0,1-92.64-21.17,97.63,97.63,0,0,1-30-45.39c-1.87-6.19-11.61-3.55-9.72,2.68Z"/><path class="cls-1" d="M2152.38,173.16c2.83,16.83,18.65,27.81,34.85,29.61,18.18,2,34.37-8.83,44.23-23.41,21.92-32.43,12.54-76.48-10.88-105.27-26.28-32.3-70.32-44.26-110.5-38.87-39.27,5.27-75.73,26.91-100,58.13-25.67,33-35.58,75.35-34,116.66,1.69,44.65,16.38,87.2,35.85,127,10.42,21.32,22.19,41.93,34.19,62.39,11.73,20,25.28,39.85,32.78,61.94,6.32,18.63,7.45,39.63-2.79,57.14-9.41,16.1-28.38,22.84-46.16,24.55-8.65.83-18.12.68-25.92-3.6-2.52-1.38-5-3-7.34-4.57a126.35,126.35,0,0,1-21.11-18c-20.42-21.56-32.33-49.84-35.33-79.27a190.52,190.52,0,0,1-.53-30c.36-6.48-9.72-6.46-10.08,0-1.87,33.22,4.35,67.05,22.4,95.4a138.36,138.36,0,0,0,42.34,42.41c11.58,7.34,24.36,9.11,37.91,7.48,16.37-2,34.42-7.45,45.78-20.06,11.84-13.15,16.82-31.71,15.72-49.15-1.34-21.42-11-41.26-21.5-59.6-43.24-75.8-95.41-154.67-85-246.25,4.61-40.4,23.43-78,55.61-103.36,31.34-24.68,73.3-36.31,112.62-27.7,38.65,8.47,71,37.67,77.28,77.69,2.88,18.26-.68,38.45-12.49,53.08-11.07,13.71-29.23,20.19-45.29,11-6.94-4-11.63-10.09-13-18-1.07-6.38-10.79-3.68-9.72,2.68Z"/><path class="cls-1" d="M1939.29,419c7.89-3.37,12.31-11.72,12.53-20.07.25-9.22-5.15-17.36-12.28-22.76-16.11-12.19-38.65-11.29-56.43-3.53-39.21,17.12-54.79,64.71-57.72,104.19-3.14,42.35,9.5,85.27,38.91,116.46,29.06,30.82,70.52,49.47,111.65,57.43,44,8.52,90.88,4.85,131.54-14.88,34.6-16.79,64-45.68,80.29-80.61a149.55,149.55,0,0,0,14-57.9,231.87,231.87,0,0,0-2.3-38.92c-1.19-9-2-18.56-4.58-27.32-3.89-13.28-10.46-26-16.59-38.39-6-12.08-12.07-24.54-19.78-35.64-12.54-18.06-23.53-36.37-32-56.73a403.52,403.52,0,0,1-20.73-63.67c-4.62-19.87-7.25-41.6-.39-61.28,3.31-9.5,9.26-18.78,17.67-24.52,7.19-4.91,16.68-8.22,22.53-.13a36.77,36.77,0,0,1,6.58,21.08c0,6.49,10,6.49,10.08,0,.09-12.66-6.3-32.49-20.37-35.81-18.14-4.29-35.5,13.72-42.66,28.22-17.83,36.13-3.27,80.66,9,116.18,7.1,20.55,15.67,40.72,26.73,59.47,7.55,12.79,16.73,24.37,23.93,37.39,7.29,13.19,14.07,26.72,20.14,40.52a133,133,0,0,1,6.16,16c2.6,8.87,3.47,18.56,4.61,27.71,2.78,22.23,3.22,44.85-2.72,66.62a148.82,148.82,0,0,1-24.84,50c-23.67,31.51-58.46,53-96.67,61.88-43,10-88.93,4.75-129.77-11.53-37.47-14.93-71.65-40.77-88.48-78.29s-16-82.81-1.18-120.86c7.5-19.24,20.06-37.36,39.05-46.58,16-7.77,42.66-9.85,53.85,7.28,4.54,7,3.25,16.84-4.87,20.3-5.95,2.54-.82,11.22,5.09,8.7Z"/><path class="cls-1" d="M2267,427.4c-13.35-60,18-126.46,72.63-154.57,13.5-7,31.9-13.14,46.59-6.09,15.79,7.57,17.76,26.79,17,42.28-1.87,39.63-14.27,79-31.9,114.28-8.45,16.92-16.15,33.3-19,52.16-2,13.44-.78,27.64,11.18,36.1,5.3,3.76,10.35-5,5.09-8.7-9.84-7-7.3-21.42-5.47-31.63,3.58-20,14.77-37.47,23.07-55.71a310.27,310.27,0,0,0,20.37-60.36c4.19-18.64,8-38.82,6.62-58-1.15-16.26-7.55-32.66-23.31-39.74-15.52-7-33.63-3.06-48.58,3.47-29.23,12.76-53.21,36.76-68.36,64.59-17.3,31.78-23.62,69.15-15.73,104.61,1.41,6.33,11.13,3.65,9.72-2.68Z"/><path class="cls-1" d="M2257.78,426.19c-18.82,36.17-36.26,78.24-31.66,119.89,2,18.41,8.62,36.57,20.05,51.26,7.62,9.79,17.67,18.38,27.76,25.54,51.17,36.31,119.59,18.66,168.48-12.51,34.5-22,63.57-52,85.81-86.21,3.54-5.46-5.18-10.51-8.7-5.09-34.46,53.07-88.92,99.52-152.47,111.58-26,4.94-53.85,2.89-77.42-9.87-24.33-13.17-43.91-34.79-51-61.82-11.32-43.18,8.21-89.94,27.86-127.68,3-5.75-5.7-10.85-8.7-5.09Z"/><path class="cls-1" d="M2384.45,197c-13.92-17.18-29.42-36.84-31.81-59.62-1.93-18.49,2.2-39.16,13.64-54.12,12.3-16.09,37.85-25.87,53.83-9.12,16.57,17.37,10.29,44.55,2.25,64.37a139.12,139.12,0,0,1-44,57.7c-5.08,3.89-.06,12.65,5.09,8.7a150,150,0,0,0,46.51-58.65c10.17-23.26,17.28-53.21.61-75.3-15.81-21-44.52-18.9-63.34-3.19-17,14.18-24.44,37.44-25,59-.77,30.36,16.81,54.82,35.1,77.4,4.08,5,11.18-2.13,7.13-7.13Z"/><path class="cls-1" d="M2363.56,511.56c58.3,32.48,106.79-27,135.12-71.17,3.51-5.48-5.21-10.54-8.7-5.09-25,39-68.87,96.77-121.33,67.55-5.67-3.16-10.76,5.54-5.09,8.7Z"/><path class="cls-1" d="M2498.68,435.31A148.92,148.92,0,0,1,2484,393.58c-.7-3.73-1.3-7.48-1.85-11.24-.52-3.53-.43-7.55-1.94-10.8-2-4.31-6.89-8.38-11.34-9.88-6.16-2.08-8.8,7.66-2.68,9.72,5.61,1.89,5.42,8.06,6.11,12.78.95,6.54,2,13.07,3.53,19.5,3,12.88,8.08,25,14.19,36.73,3,5.75,11.71.66,8.7-5.09Z"/><path class="cls-1" d="M2466.16,361.66c-10.11,2.88-20.26-3.12-25.58-11.68-6.36-10.24-5.51-23.32-2.81-34.58a126.65,126.65,0,0,1,30.88-57.07,99.59,99.59,0,0,1,24.72-19.05c4.86-2.62,10-5,15.49-6.06,6.54-1.22,12.81.6,18.69,3.41,18.27,8.75,32.8,23.83,43,41.13a136.44,136.44,0,0,1,18.68,64.84c.2,6.47,10.28,6.5,10.08,0-1.44-45.84-25.37-96.5-69.16-115.82-13.68-6-25.94-4.17-39,2.32a106.84,106.84,0,0,0-29,21.52c-17.14,17.72-30.08,41.54-34.84,65.8-2.81,14.34-2.22,30.19,7.13,42.14,8.13,10.39,21.39,16.54,34.47,12.81,6.23-1.78,3.58-11.51-2.68-9.72Z"/><path class="cls-1" d="M2598.63,345.15a346.86,346.86,0,0,1,30.54-49.29c10.22-13.73,21.54-28.55,36.51-37.38,13.36-7.88,32.82-10.37,44.49,1.93,10.81,11.39,13.86,34,2.39,46-4.5,4.68,2.62,11.81,7.13,7.13,20.81-21.63,8.14-64-21-70.57-33.22-7.51-58,21.27-75.87,44.75a347.13,347.13,0,0,0-32.86,52.38c-2.95,5.77,5.75,10.87,8.7,5.09Z"/><path class="cls-1" d="M2714.78,305.07c-27.93,7.6-52,28.19-70.84,49.37A208.34,208.34,0,0,0,2618.06,390c-2.93,5.16-6.47,10.84-7.61,16.72-1.18,6.06.55,14.09-2.65,19.53-3.29,5.61,5.42,10.68,8.7,5.09,3.18-5.41,2.95-11.86,3.31-17.93s2.75-10.64,5.57-15.83A191.15,191.15,0,0,1,2650,362.78c17.93-20.4,40.69-40.7,67.48-48,6.25-1.7,3.6-11.43-2.68-9.72Z"/><path class="cls-1" d="M2518.83,521.61c1.36,25.7,13.82,51.07,34.53,66.65,13.44,10.11,30.32,13.91,46.87,14.55,36.92,1.43,71.42-15.59,99.11-38.86,25.38-21.33,45.83-48.11,63.39-76.06,3.46-5.51-5.26-10.57-8.7-5.09-25.25,40.16-57.89,80.15-102.37,99.71-24.23,10.66-54.51,14.82-79.76,4.83-25.62-10.15-41.59-39.18-43-65.73-.34-6.45-10.42-6.49-10.08,0Z"/><path class="cls-1" d="M2607.29,430.08c2.41,7.94,1.18,16.22,2.26,24.36.94,7.07,3.84,14,6.68,20.46,5.45,12.48,14.29,23.8,28.12,27.16,28.42,6.9,57.75-14.92,75.82-34.5,11.29-12.23,20.81-26,29.68-40.06,3.47-5.5-5.25-10.56-8.7-5.09C2724,449.53,2702.7,479,2671.08,490c-8.12,2.82-17.24,4.45-25.64,1.89-7.46-2.27-12.8-7.82-16.65-14.39a77.06,77.06,0,0,1-9-22.6c-1.82-9.13,0-18.45-2.75-27.51-1.88-6.19-11.61-3.55-9.72,2.68Z"/><path class="cls-1" d="M2750.37,423.62c-8.17-48.25,1.89-103.8,36.56-140,16-16.76,36.59-29.28,59.33-34.38,11.93-2.68,27.08-4.8,38.06,1.89,9.44,5.75,14.16,17.12,15.53,27.69,3.57,27.71-14.28,59.13-44.71,59-6.49,0-6.5,10.05,0,10.08,29.7.13,51-24.87,54.59-52.87,3.33-26.28-8.8-55.19-37.93-58-26.88-2.55-55.2,9.27-76.17,25.32-22.16,17-38.18,40.12-47.39,66.39-10.88,31-13.06,65.21-7.59,97.56,1.08,6.38,10.8,3.68,9.72-2.68Z"/><path class="cls-1" d="M2855.43,341.27c-4.76,22-3.27,45.24.29,67.31,4,24.64,16.39,46.31,22.14,70.4,1.51,6.31,11.23,3.64,9.72-2.68-5.49-23-17.48-43.8-21.6-67.21-3.72-21.14-5.41-44-.83-65.15,1.37-6.32-8.35-9-9.72-2.68Z"/><path class="cls-1" d="M2880.88,485.73a377,377,0,0,0,32.84-30.52c4.48-4.69-2.64-11.83-7.13-7.13a377,377,0,0,1-32.84,30.52c-5,4.13,2.16,11.22,7.13,7.13Z"/><path class="cls-1" d="M2915.2,451.65c-1.23-52.85,10.14-109.6,38-155.1,5.78-9.42,13.78-19.69,25.27-22,12.41-2.45,23.77,6.32,31.25,15.26,17.39,20.8,22.5,49.76,19.3,76.08-2,16.32-7.13,32.39-14,47.26-5.61,12.05-13.15,25.16-26.19,30.21-6,2.32-3.38,12.07,2.68,9.72,12.8-5,21.65-15.08,28.19-26.88a170,170,0,0,0,16.38-42.86c7-29.71,5.11-62.25-10.82-88.91-6.91-11.56-16.49-22.38-29.19-27.59-12.36-5.07-25.42-2.55-35.72,5.69-10.69,8.55-17.54,21.08-23.55,33.11a290.63,290.63,0,0,0-17,42,320,320,0,0,0-14.69,104c.15,6.48,10.23,6.5,10.08,0Z"/><path class="cls-1" d="M2986.58,451.83c7.85,6.53,17.24,11.58,27.35,13.48,10.53,2,20-.08,29.35-5.2,20.81-11.44,30.54-34.16,49.91-47.11,5.37-3.59.33-12.32-5.09-8.7-17.16,11.47-26.44,30.52-42.89,42.62-7.38,5.43-15.95,9.84-25.33,9.11s-18.94-5.3-26.18-11.33c-5-4.12-12.12,3-7.13,7.13Z"/><path class="cls-1" d="M3089.31,413.51c13.94,3.16,20,18.56,18.44,31.65-2,17.16-10.56,32.74-21.71,45.64-21.68,25.1-52.35,45.19-86.64,43.66-20.1-.9-39.42-8.2-56.82-17.94-5.67-3.17-10.75,5.53-5.09,8.7,17.74,9.93,37.08,17.18,57.43,19,19.5,1.76,38.5-2.9,55.76-11.92,32.59-17,63.82-50.19,67.27-88.2,1.55-17.14-8.3-36.33-26-40.33-6.32-1.43-9,8.28-2.68,9.72Z"/><path class="cls-1" d="M2743.51,501.75c7.58,46.91,26.19,91.4,49.08,132.8,3.14,5.68,11.85.6,8.7-5.09-22.5-40.7-40.61-84.27-48.07-130.39-1-6.39-10.75-3.68-9.72,2.68Z"/><path class="cls-1" d="M2794.4,627.65a183.34,183.34,0,0,0-37.72,37.11c-10.27,13.44-18.63,28.83-21.06,45.77-2.31,16.13,1.81,32.52,14.91,43,12.33,9.89,28.78,13.16,44.22,13.94,64.41,3.23,125.06-44.18,134.75-108.29,5.48-36.22-3.65-73.54-26.26-102.47-4-5.11-11.08,2.07-7.13,7.13,35.88,45.91,32.77,116-8.59,157.34a125,125,0,0,1-74.32,35.69c-25.43,2.66-65.92-1.61-68.13-34.34-1.17-17.27,7-34,16.68-47.79a166.93,166.93,0,0,1,37.73-38.42c5.2-3.78.17-12.53-5.09-8.7Z"/><path class="cls-1" d="M2906.87,568.1c14.66-12.63,27-28.51,37.52-44.68,3.54-5.46-5.18-10.51-8.7-5.09-10.07,15.5-21.91,30.54-35.95,42.64-4.92,4.24,2.23,11.35,7.13,7.13Z"/><path class="cls-1" d="M346,71a33,33,0,0,0,5.5,27.83c3.86,5.11,12.62.1,8.7-5.09-4.46-5.92-6.23-12.78-4.48-20.06,1.51-6.3-8.2-9-9.72-2.68Z"/><path class="cls-1" d="M400.88,166.62a57.64,57.64,0,0,0,21.91-18.46c3.83-5.25-4.92-10.28-8.7-5.09a47.53,47.53,0,0,1-18.3,14.85c-5.86,2.78-.75,11.47,5.09,8.7Z"/><path class="cls-1" d="M330.85,262.63,338.11,281c2.36,6,12.11,3.37,9.72-2.68l-7.26-18.38c-2.36-6-12.11-3.37-9.72,2.68Z"/><path class="cls-1" d="M391.56,306.59a13.62,13.62,0,0,1-4.19,11.6c-4.62,4.57,2.51,11.69,7.13,7.13,5.81-5.74,8-13.43,6.78-21.4-.4-2.69-3.8-4.19-6.2-3.52-2.88.81-3.93,3.49-3.52,6.2Z"/><path class="cls-1" d="M314.35,433.68v22c0,6.49,10.08,6.5,10.08,0v-22c0-6.49-10.08-6.5-10.08,0Z"/><path class="cls-1" d="M102.86,460a33.29,33.29,0,0,0,18.91-5.71c5.33-3.63.3-12.37-5.09-8.7a23.74,23.74,0,0,1-13.82,4.33c-6.49,0-6.5,10.06,0,10.08Z"/><path class="cls-1" d="M81.63,552a17.27,17.27,0,0,0,.48,18.11c3.6,5.36,12.33.32,8.7-5.09a7.19,7.19,0,0,1-.48-7.93c3.22-5.64-5.49-10.73-8.7-5.09Z"/><path class="cls-1" d="M203,609.2a17.35,17.35,0,0,1-.52,12.06c-1,2.53,1.09,5.53,3.52,6.2,2.86.79,5.2-1,6.2-3.52a26.27,26.27,0,0,0,.52-17.41C210.75,600.35,201,603,203,609.2Z"/><path class="cls-1" d="M283.28,611.17a15.91,15.91,0,0,0,15.9,12.52c6.47-.23,6.5-10.31,0-10.08a5.89,5.89,0,0,1-6.18-5.12c-.5-2.68-3.73-4.2-6.2-3.52a5.15,5.15,0,0,0-3.52,6.2Z"/><path class="cls-1" d="M448.65,412.58a29.74,29.74,0,0,0,12.62-13.09,5.17,5.17,0,0,0-1.81-6.9c-2.21-1.29-5.7-.65-6.9,1.81a20.65,20.65,0,0,1-9,9.47c-5.71,3.08-.63,11.78,5.09,8.7Z"/><path class="cls-1" d="M627.1,91.82A24.87,24.87,0,0,0,624.53,114c2.23,6,12,3.42,9.72-2.68a15.3,15.3,0,0,1,1.55-14.38c3.56-5.45-5.16-10.5-8.7-5.09Z"/><path class="cls-1" d="M683.79,137.6l-14.68,7.34c-5.8,2.9-.7,11.6,5.09,8.7l14.68-7.34c5.8-2.9.7-11.6-5.09-8.7Z"/><path class="cls-1" d="M544.39,222a22.43,22.43,0,0,0,2.7,24.38c1.69,2.16,5.35,1.74,7.13,0,2.14-2.1,1.67-5,0-7.13a11.82,11.82,0,0,1-1.12-12.16c2.84-5.81-5.85-10.92-8.7-5.09Z"/><path class="cls-1" d="M573.63,300.33a27.6,27.6,0,0,1-8.39,14.07c-4.8,4.38,2.34,11.5,7.13,7.13a37.08,37.08,0,0,0,11-18.51c1.56-6.3-8.16-9-9.72-2.68Z"/><path class="cls-1" d="M517.77,451.65a27.3,27.3,0,0,0,12,15.56c5.55,3.39,10.62-5.33,5.09-8.7a16.66,16.66,0,0,1-7.38-9.53c-1.87-6.19-11.6-3.55-9.72,2.68Z"/><path class="cls-1" d="M507.73,564.61a20.11,20.11,0,0,1-11.82,12.53c-2.55,1-4.29,3.4-3.52,6.2.67,2.44,3.64,4.49,6.2,3.52a30.89,30.89,0,0,0,18.86-19.58c2-6.18-7.71-8.83-9.72-2.68Z"/><path class="cls-1" d="M600.91,555.72l3.77,5.43c1.5,2.16,4.48,3.36,6.9,1.81,2.15-1.38,3.42-4.58,1.81-6.9l-3.77-5.43c-1.5-2.16-4.48-3.36-6.9-1.81-2.15,1.38-3.42,4.58-1.81,6.9Z"/><path class="cls-1" d="M722,375.49a28.07,28.07,0,0,1-6.29,14.21c-4.2,4.9,2.9,12.07,7.13,7.13a37.63,37.63,0,0,0,8.89-18.66c.43-2.71-.7-5.39-3.52-6.2-2.39-.68-5.77.84-6.2,3.52Z"/><path class="cls-1" d="M817.31,274.56A34,34,0,0,0,819,291.95c1,2.54,3.39,4.29,6.2,3.52,2.42-.67,4.51-3.65,3.52-6.2a23.85,23.85,0,0,1-1.68-12c.38-2.69-.66-5.41-3.52-6.2-2.36-.65-5.81.81-6.2,3.52Z"/><path class="cls-1" d="M879.68,353a6.85,6.85,0,0,1-3.93,5.95c-2.54,1-4.29,3.39-3.52,6.2.67,2.43,3.64,4.5,6.2,3.52A17.07,17.07,0,0,0,889.76,353c.16-6.49-9.92-6.49-10.08,0Z"/><path class="cls-1" d="M717.92,505.23c-.77,8.68,5,16.49,13,19.3,6.14,2.14,8.78-7.59,2.68-9.72-4-1.41-6-5.52-5.62-9.58.24-2.72-2.49-5-5-5-2.93,0-4.8,2.32-5,5Z"/><path class="cls-1" d="M778.65,567.14a6.89,6.89,0,0,1-3.2,7c-5.5,3.42-.44,12.14,5.09,8.7a17.32,17.32,0,0,0,7.83-18.37c-.53-2.67-3.72-4.2-6.2-3.52a5.14,5.14,0,0,0-3.52,6.2Z"/><path class="cls-1" d="M845.42,593.93a31,31,0,0,0,21.2,13.58c2.72.38,5.38-.66,6.2-3.52.68-2.35-.83-5.82-3.52-6.2a21.43,21.43,0,0,1-15.18-9c-3.64-5.32-12.38-.28-8.7,5.09Z"/><path class="cls-1" d="M918.61,493a13.43,13.43,0,0,1-8,9c-2.55,1-4.29,3.41-3.52,6.2.67,2.45,3.64,4.48,6.2,3.52a24,24,0,0,0,15-16.06c1.76-6.25-8-8.92-9.72-2.68Z"/><path class="cls-1" d="M1087,89.5a24.88,24.88,0,0,0-1.14,25.54c3,5.76,11.7.66,8.7-5.09a14.7,14.7,0,0,1,1.14-15.36c3.63-5.4-5.1-10.45-8.7-5.09Z"/><path class="cls-1" d="M1114.8,168.19a8.8,8.8,0,0,1-7.83,7.22c-2.7.39-4.18,3.81-3.52,6.2.8,2.89,3.5,3.91,6.2,3.52a18.4,18.4,0,0,0,14.87-14.26,5.17,5.17,0,0,0-3.52-6.2c-2.49-.68-5.66.84-6.2,3.52Z"/><path class="cls-1" d="M1228.3,98.91c5,7.17,14.26,10.74,22.61,7.44,2.55-1,4.27-3.36,3.52-6.2-.64-2.42-3.67-4.52-6.2-3.52-4,1.56-8.66.9-11.22-2.81-3.67-5.3-12.41-.26-8.7,5.09Z"/><path class="cls-1" d="M1319.88,94.71a30,30,0,0,0,.21,19.18c2.14,6.08,11.88,3.46,9.72-2.68a20.77,20.77,0,0,1-.21-13.82c2-6.19-7.73-8.84-9.72-2.68Z"/><path class="cls-1" d="M1326.4,169a29.57,29.57,0,0,1-15.82,13.77c-6.05,2.19-3.44,11.94,2.68,9.72a40.18,40.18,0,0,0,21.84-18.4c3.14-5.68-5.56-10.77-8.7-5.09Z"/><path class="cls-1" d="M1229.84,225.89l1.88,12.84c.4,2.7,3.81,4.18,6.2,3.52,2.89-.79,3.92-3.5,3.52-6.2l-1.88-12.84c-.4-2.7-3.81-4.18-6.2-3.52-2.89.79-3.92,3.5-3.52,6.2Z"/><path class="cls-1" d="M1270.07,303.05a20.17,20.17,0,0,0,13.1,12.43,5,5,0,1,0,2.68-9.72,10,10,0,0,1-3.62-2,10.72,10.72,0,0,1-2.43-3.37c-1-2.54-3.39-4.29-6.2-3.52-2.43.67-4.5,3.65-3.52,6.2Z"/><path class="cls-1" d="M1215.59,360.31a17.25,17.25,0,0,1-9,13.69c-5.66,3.17-.59,11.88,5.09,8.7a27.65,27.65,0,0,0,14-22.4c.5-6.47-9.59-6.44-10.08,0Z"/><path class="cls-1" d="M1239.85,531.57c.5.86.1-.36.08.11s.16-.89,0,.07.07-.54,0,.09c0,.26-.42,1.12,0,.17-.12.25-.27.48-.4.73.44-.79.12-.15-.13.1-.41.41.47-.62-.12.07l.46-.17a4.78,4.78,0,0,1-.8.21,5,5,0,0,0,2.68,9.72c7-1.54,10.38-10.15,6.86-16.18-3.27-5.6-12-.53-8.7,5.09Z"/><path class="cls-1" d="M1309.68,508.3l-1.86,3.66a5.34,5.34,0,0,0-.51,3.88,5.14,5.14,0,0,0,2.32,3c2.3,1.22,5.62.7,6.9-1.81l1.86-3.66a5.34,5.34,0,0,0,.51-3.88,5.14,5.14,0,0,0-2.32-3c-2.3-1.22-5.62-.7-6.9,1.81Z"/><path class="cls-1" d="M1452.53,308.17a22.33,22.33,0,0,0-11.33,19.09c-.14,6.49,9.94,6.49,10.08,0a12.06,12.06,0,0,1,6.34-10.39c5.65-3.18.58-11.89-5.09-8.7Z"/><path class="cls-1" d="M1430.93,387.32a14.64,14.64,0,0,1-8.4,6.49c-6.2,1.86-3.56,11.59,2.68,9.72a25.26,25.26,0,0,0,14.43-11.12c3.39-5.55-5.32-10.62-8.7-5.09Z"/><path class="cls-1" d="M1378.67,461.19c.78,7.29,4.78,13.9,11.56,17.1a5.18,5.18,0,0,0,6.9-1.81c1.28-2.19.66-5.73-1.81-6.9-3.36-1.59-6.15-4.54-6.56-8.4-.29-2.71-2.11-5-5-5-2.5,0-5.33,2.32-5,5Z"/><path class="cls-1" d="M1420.74,536a8.23,8.23,0,0,1-2.22,7.91c-4.54,4.64,2.58,11.77,7.13,7.13a18.69,18.69,0,0,0,4.81-17.72c-1.54-6.3-11.27-3.63-9.72,2.68Z"/><path class="cls-1" d="M1464.47,595a43.78,43.78,0,0,0,18.58,10.81c6.25,1.8,8.91-7.93,2.68-9.72a33,33,0,0,1-14.14-8.21c-4.65-4.53-11.78,2.59-7.13,7.13Z"/><path class="cls-1" d="M1525.32,512.13c.45,1.58,0-.38.15.53,0,.24-.06,1.21,0,.54a3,3,0,0,1-.71,1.82,4.21,4.21,0,0,1-.91,1,7.07,7.07,0,0,0-.86.47c.62-.35-.89.12-.06,0-2.7.31-5,2.09-5,5,0,2.48,2.32,5.36,5,5,8.24-1,14.41-8.8,12.07-17.13-1.76-6.23-11.48-3.59-9.72,2.68Z"/><path class="cls-1" d="M1542.57,335.8c-6,7.84-4.59,19.59,2.58,26.17,4.77,4.38,11.92-2.73,7.13-7.13-4.17-3.82-4.36-9.54-1-14,3.92-5.16-4.83-10.19-8.7-5.09Z"/><path class="cls-1" d="M1570.28,411.08a13.56,13.56,0,0,1-6.48,6.61c-2.51,1.05-4.31,3.33-3.52,6.2.65,2.37,3.67,4.58,6.2,3.52a23.66,23.66,0,0,0,12.5-11.24,5.17,5.17,0,0,0-1.81-6.9c-2.22-1.3-5.69-.64-6.9,1.81Z"/><path class="cls-1" d="M1618.4,505.2h7.34a5,5,0,0,0,0-10.08h-7.34a5,5,0,0,0,0,10.08Z"/><path class="cls-1" d="M1670.94,445.82a25.6,25.6,0,0,0-2.52,13.54c.28,2.71,2.11,5,5,5,2.51,0,5.32-2.32,5-5a15.82,15.82,0,0,1,1.15-8.45c1.15-2.47.7-5.43-1.81-6.9-2.18-1.27-5.74-.67-6.9,1.81Z"/><path class="cls-1" d="M2185.92,135.92a11.41,11.41,0,0,0,3,13.8c3.85,3.27,9.7,4.72,14.09,1.52,2.2-1.6,3.28-4.38,1.81-6.9-1.27-2.17-4.68-3.42-6.9-1.81a5.19,5.19,0,0,1-.75.5q.83-.3,0,0,1-.07.09,0t.08.06c-.15,0-1.44-.46-.45,0-.2-.09-1.68-1-.86-.4-.18-.14-1.36-1.45-.74-.6a6.78,6.78,0,0,1-.67-1.12q.34.82.06,0t0,.1q0-.88-.06.08.25-.82,0,0c1.16-2.46.69-5.44-1.81-6.9-2.19-1.28-5.73-.67-6.9,1.81Z"/><path class="cls-1" d="M2154.49,76.53c1.18,1.67,1.69,4.46-.23,5.88-2.18,1.62-3.29,4.37-1.81,6.9,1.26,2.15,4.7,3.44,6.9,1.81,6.06-4.49,8.45-13.19,3.85-19.67a5.18,5.18,0,0,0-6.9-1.81c-2.19,1.28-3.39,4.66-1.81,6.9Z"/><path class="cls-1" d="M2059.88,96.31c-7.23,7.58-5.32,21.63,4.61,26,5.88,2.61,11-6.07,5.09-8.7-3.8-1.69-5.7-6.93-2.57-10.21,4.48-4.7-2.64-11.83-7.13-7.13Z"/><path class="cls-1" d="M2067.62,193.32a11.24,11.24,0,0,1-6.9,10.18c-2.47,1.15-3.09,4.7-1.81,6.9,1.48,2.53,4.42,3,6.9,1.81a21.17,21.17,0,0,0,11.9-18.88c.09-6.49-10-6.49-10.08,0Z"/><path class="cls-1" d="M2024.86,270.44c-5.56,5.44-2.84,14.86,4.2,17.34,2.57.91,5.51-1,6.2-3.52a5.14,5.14,0,0,0-3.52-6.2c1.29.45-.21-.27.35.19s-.31-.47.23.32c-.09-.12-.61-1.08-.3-.42s-.11-.49-.12-.51c.17.38-.06.79,0,.18.2-1.25-.15.72-.05,0s.32-.43-.06-.05c.73-.73-.68.62.16-.19,4.64-4.55-2.49-11.67-7.13-7.13Z"/><path class="cls-1" d="M2029.25,351.66a20.13,20.13,0,0,1-10.71,11.52c-2.46,1.17-3.1,4.69-1.81,6.9,1.47,2.51,4.43,3,6.9,1.81A30.12,30.12,0,0,0,2039,354.34c2.14-6.14-7.59-8.78-9.72-2.68Z"/><path class="cls-1" d="M2086.18,337c-2.18,6.39,2.17,14.07,8.82,15.39a5.17,5.17,0,0,0,6.2-3.52c.68-2.48-.84-5.67-3.52-6.2,0,0-1.25-.35-.72-.14s-.5-.31-.61-.39c.58.42,0,0-.19-.28-.46-.59.42.92-.17-.29-.18-.36-.25-.54-.08-.06,0,0-.33-1.3-.23-.67s0-.56,0-.7c0,.88.08-.1.21-.46a5,5,0,0,0-9.72-2.68Z"/><path class="cls-1" d="M2137.13,402.09a8.62,8.62,0,0,1-1.11,8.85c-1.59,2.21-.38,5.61,1.81,6.9,2.54,1.49,5.3.41,6.9-1.81a17.88,17.88,0,0,0,2.12-16.62c-1-2.53-3.38-4.29-6.2-3.52-2.42.66-4.51,3.65-3.52,6.2Z"/><path class="cls-1" d="M2116.24,506.54a14.87,14.87,0,0,0,8.14,20.05c2.51,1.06,5.55-1.14,6.2-3.52.8-2.91-1-5.14-3.52-6.2-1.68-.71-2.68-3.9-2.11-5.24,1.06-2.5.75-5.4-1.81-6.9-2.12-1.24-5.83-.71-6.9,1.81Z"/><path class="cls-1" d="M2139.26,582.81a19.72,19.72,0,0,0,12.7,22.48c6.09,2.27,8.71-7.47,2.68-9.72a9.38,9.38,0,0,1-5.66-10.08c1.2-6.34-8.51-9.06-9.72-2.68Z"/><path class="cls-1" d="M2029.58,595.84a23.38,23.38,0,0,0,25.19-.14c5.41-3.53.37-12.26-5.09-8.7a13.36,13.36,0,0,1-15,.14c-5.5-3.48-10.56,5.24-5.09,8.7Z"/><path class="cls-1" d="M1950.65,543a16.47,16.47,0,0,0,0,18.05c3.58,5.37,12.32.33,8.7-5.09a6.59,6.59,0,0,1,0-7.88c3.63-5.4-5.1-10.45-8.7-5.09Z"/><path class="cls-1" d="M1887.75,539.62c.76,3.89-1.17,7.35-4.16,9.69-2.15,1.68-1.76,5.37,0,7.13,2.12,2.12,5,1.68,7.13,0,5.92-4.62,8.16-12.29,6.76-19.5-1.24-6.36-11-3.67-9.72,2.68Z"/><path class="cls-1" d="M1902.3,461.2a15.72,15.72,0,0,0,8.13,15.18c5.7,3.09,10.8-5.61,5.09-8.7-2.58-1.4-3.46-3.68-3.14-6.47s-2.54-5-5-5c-3,0-4.73,2.32-5,5Z"/><path class="cls-1" d="M1837.65,420.38a53.33,53.33,0,0,0,23.36-3.86c5.92-2.42,3.33-12.18-2.68-9.72a46.49,46.49,0,0,1-20.68,3.5c-6.48-.37-6.46,9.71,0,10.08Z"/><path class="cls-1" d="M2339,98.23a33.16,33.16,0,0,0,16,1.95c2.7-.34,5-2.07,5-5,0-2.46-2.32-5.39-5-5a26.68,26.68,0,0,1-13.35-1.59c-2.54-1-5.53,1.08-6.2,3.52-.78,2.84,1,5.22,3.52,6.2Z"/><path class="cls-1" d="M2376.25,105a19.72,19.72,0,0,0,4.55,21.3c4.61,4.58,11.74-2.55,7.13-7.13-3.23-3.21-3.68-7.4-2-11.49,1.06-2.53-1.14-5.52-3.52-6.2-2.9-.83-5.15,1-6.2,3.52Z"/><path class="cls-1" d="M2396.15,143.4c.24-.64-.36.75-.37.76-.17.31-.35.62-.54.93a5.83,5.83,0,0,1-1.41,1.69,11.22,11.22,0,0,1-3.44,2.21,5.17,5.17,0,0,0-3.52,6.2c.68,2.48,3.62,4.44,6.2,3.52a20.87,20.87,0,0,0,12.79-12.62c1-2.55-1.07-5.53-3.52-6.2-2.83-.78-5.23,1-6.2,3.52Z"/><path class="cls-1" d="M2331.11,301.51a20.46,20.46,0,0,0-2.4,22.78c3,5.76,11.7.67,8.7-5.09a9.94,9.94,0,0,1,.82-10.57c1.71-2.14,2.06-5,0-7.13-1.74-1.78-5.44-2.12-7.13,0Z"/><path class="cls-1" d="M2357.38,364.37a53.58,53.58,0,0,1-10.44,9.81,5.18,5.18,0,0,0-1.81,6.9c1.29,2.2,4.66,3.38,6.9,1.81a63,63,0,0,0,12.48-11.38c1.73-2.1,2.05-5.07,0-7.13-1.79-1.79-5.38-2.11-7.13,0Z"/><path class="cls-1" d="M2280.59,421.36a23,23,0,0,0,6.74,21.34c4.74,4.42,11.89-2.7,7.13-7.13a12.62,12.62,0,0,1-4.15-11.53c1.16-6.34-8.55-9.06-9.72-2.68Z"/><path class="cls-1" d="M2291.34,550.65a5.82,5.82,0,0,1-2.18,6.13c-2.07,1.78-1.82,5.31,0,7.13a5.14,5.14,0,0,0,7.13,0,15.87,15.87,0,0,0,4.77-15.94c-1.61-6.28-11.33-3.62-9.72,2.68Z"/><path class="cls-1" d="M2350,627.7a26.92,26.92,0,0,0,13.58,19.43c5.67,3.17,10.76-5.53,5.09-8.7a17.56,17.56,0,0,1-9-13.4c-.38-2.69-3.82-4.19-6.2-3.52-2.89.81-3.91,3.48-3.52,6.2Z"/><path class="cls-1" d="M2350.13,480.44a17.13,17.13,0,0,0,19.06,4.86c2.52-1,4.3-3.36,3.52-6.2-.66-2.39-3.66-4.55-6.2-3.52a7.54,7.54,0,0,1-9.25-2.27c-1.74-2.09-5.33-1.8-7.13,0-2.07,2.07-1.75,5,0,7.13Z"/><path class="cls-1" d="M2456.19,557.05q.19.91.07.13a8,8,0,0,1,0,1c0-.9-.22.83-.32,1.09.42-1.06-.85,1.23-.19.36a8,8,0,0,1-.69.72q.58-.38-.17.11a5.16,5.16,0,0,0-1.81,6.9,5.09,5.09,0,0,0,6.9,1.81,13.72,13.72,0,0,0,5.93-14.79,5,5,0,0,0-9.72,2.68Z"/><path class="cls-1" d="M2368.52,552.83c3.24,7.2,13.52,9.9,19.89,5.26,2.2-1.6,3.28-4.38,1.81-6.9-1.27-2.17-4.68-3.42-6.9-1.81a3.8,3.8,0,0,1-6.1-1.64c-1.12-2.48-4.72-3.08-6.9-1.81-2.55,1.49-2.93,4.4-1.81,6.9Z"/><path class="cls-1" d="M2489.75,480.84a8.43,8.43,0,0,1,.23,7.09,5.18,5.18,0,0,0,1.81,6.9c2.2,1.29,5.71.66,6.9-1.81a18,18,0,0,0,.79-14.85c-1.05-2.51-3.33-4.31-6.2-3.52-2.37.65-4.58,3.67-3.52,6.2Z"/><path class="cls-1" d="M2483.85,276.28c-7.56,7.24-1.65,21.52,8.83,21.27,6.48-.15,6.5-10.23,0-10.08-1.23,0,.33,0-.73-.06.6,0-.38-.31,0,0,0,0-1-1.08-.61-.54,0,0-.76-1.33-.48-.69a3.55,3.55,0,0,1-.38-2.29c0,.78.24-.4.05,0,.08-.15.06-.12.45-.49,4.69-4.5-2.44-11.62-7.13-7.13Z"/><path class="cls-1" d="M1184.13,728.16c-7.56,7.24-1.65,21.52,8.83,21.27,6.48-.15,6.5-10.23,0-10.08-1.23,0,.33,0-.73-.06.6,0-.38-.31,0,0,0,0-1-1.08-.61-.54,0,0-.76-1.33-.48-.69a3.55,3.55,0,0,1-.38-2.29c0,.78.24-.4.05,0,.08-.15.06-.12.45-.49,4.69-4.5-2.44-11.62-7.13-7.13Z"/><path class="cls-1" d="M2535.65,315l-1.87,5.49a5.08,5.08,0,0,0,3.52,6.2,5.16,5.16,0,0,0,6.2-3.52l1.87-5.49a5.08,5.08,0,0,0-3.52-6.2,5.16,5.16,0,0,0-6.2,3.52Z"/><path class="cls-1" d="M2498.81,401.15c-1.21,7.52,3.12,15.32,10.9,17a5.16,5.16,0,0,0,6.2-3.52,5.09,5.09,0,0,0-3.52-6.2,4.39,4.39,0,0,1-2.82-1.62,4.48,4.48,0,0,1-.85-1.66c0-.1-.21-.86-.13-.36,0,0,0-1.5-.06-1,.43-2.68-.69-5.42-3.52-6.2-2.4-.66-5.77.82-6.2,3.52Z"/><path class="cls-1" d="M2572.38,396.41c1.53,3.82.13,8.66-4.09,10-6.15,2-3.52,11.72,2.68,9.72,9-2.91,14.78-13.31,11.13-22.42-1-2.53-3.36-4.3-6.2-3.52-2.4.66-4.54,3.66-3.52,6.2Z"/><path class="cls-1" d="M2665.51,283.67l-1.9,9.16a5.16,5.16,0,0,0,3.52,6.2c2.5.69,5.64-.84,6.2-3.52l1.9-9.16a5.16,5.16,0,0,0-3.52-6.2c-2.5-.69-5.64.84-6.2,3.52Z"/><path class="cls-1" d="M2588.17,530.83q.6.64.12,0,.41.78.12,0a6.45,6.45,0,0,1,.26.89q-.09-.86,0,.05t0,.05a6.44,6.44,0,0,1-.26.89q.3-.74-.12,0,.48-.61-.12,0a5,5,0,1,0,7.13,7.13,11.52,11.52,0,0,0,0-16.28,5,5,0,1,0-7.13,7.13Z"/><path class="cls-1" d="M2596.14,596.47c1.22,6.91,6.21,12.12,12.56,14.69,2.52,1,5.54-1.11,6.2-3.52.79-2.88-1-5.17-3.52-6.2-3.15-1.28-5-4.45-5.52-7.65-.47-2.68-3.75-4.19-6.2-3.52-2.83.78-4,3.51-3.52,6.2Z"/><path class="cls-1" d="M2676.7,526.78q.19.91.07.13a8,8,0,0,1,0,1c0-.9-.22.83-.32,1.09.42-1.06-.85,1.23-.19.36a8,8,0,0,1-.69.72q.58-.38-.17.11a5.16,5.16,0,0,0-1.81,6.9,5.09,5.09,0,0,0,6.9,1.81,13.72,13.72,0,0,0,5.93-14.79,5,5,0,0,0-9.72,2.68Z"/><path class="cls-1" d="M2812.27,285.39c-5.55,7-6.58,16.86-1,24.22,1.65,2.19,4.33,3.27,6.9,1.81,2.15-1.23,3.44-4.73,1.81-6.9-2.61-3.46-3.45-8.36-.55-12,1.71-2.14,2.06-5,0-7.13-1.74-1.78-5.43-2.12-7.13,0Z"/><path class="cls-1" d="M2823.52,372.65c-.15-.76,0,1,0,1.25.15-1.12-.39,1.13-.18.58q.21-.41-.17.35a9.07,9.07,0,0,1-.54.89c.58-.76-1.17.95-.4.39-2.2,1.59-3.28,4.38-1.81,6.9,1.27,2.17,4.68,3.41,6.9,1.81a14.39,14.39,0,0,0,5.94-14.85c-.52-2.67-3.72-4.2-6.2-3.52a5.14,5.14,0,0,0-3.52,6.2Z"/><path class="cls-1" d="M2781.37,461.7a11.56,11.56,0,0,0,13.54,13.56c2.61-.4,4.29-3.82,3.52-6.2-.92-2.85-3.4-3.95-6.2-3.52,1.25-.19-.57-.3.69,0-.14,0-1.23-.29-.54-.09s-.32-.2-.47-.28c-1-.57.59.61-.24-.22-.65-.65.15.42-.11-.08-.16-.3-.35-.57-.5-.87.5,1,.08,0,0-.31l.09.55q0-.87-.09.14c.4-2.59-.66-5.55-3.52-6.2-2.41-.55-5.77.73-6.2,3.52Z"/><path class="cls-1" d="M2839.9,527.25v3.67a5,5,0,0,0,10.08,0v-3.67a5,5,0,0,0-10.08,0Z"/><path class="cls-1" d="M2784.2,600.18A38.24,38.24,0,0,1,2769,616.4c-5.62,3.24-.55,12,5.09,8.7a47.77,47.77,0,0,0,18.86-19.84c2.92-5.78-5.78-10.89-8.7-5.09Z"/><path class="cls-1" d="M2788.66,702.34a12.81,12.81,0,0,0,7.36,18.29c6.21,1.92,8.87-7.8,2.68-9.72-.62-.19-.4-.13-.64-.35s-.7-.9-.35-.37c-.08-.12-.59-1.18-.44-.79a2.42,2.42,0,0,1-.17-1.09c0-.72-.12-.21.26-.88,3.17-5.67-5.53-10.76-8.7-5.09Z"/><path class="cls-1" d="M2872.33,665c.66.67-.2-.42.06.09s-.26-.79-.07-.1c.14.51.13-.87,0,0s-.12-.37,0,.07c0,.08-.3,1-.06.36s-.21.33-.3.47c.31-.48.09-.47,0-.12q.68-.49.21-.21a3.3,3.3,0,0,1-.54.27c-2.48,1.13-3.08,4.72-1.81,6.9,1.49,2.55,4.41,2.94,6.9,1.81,6.33-2.89,7.29-12,2.67-16.7a5,5,0,1,0-7.13,7.13Z"/><path class="cls-1" d="M2905.49,600.12a38.7,38.7,0,0,0,22.73-4.27c5.77-3,.67-11.67-5.09-8.7a29.5,29.5,0,0,1-17.65,2.89c-2.72-.34-5,2.56-5,5,0,3,2.35,4.7,5,5Z"/><path class="cls-1" d="M2963.8,328.54c-3.86,8.24-2.49,17.9,4.19,24.29,4.69,4.48,11.83-2.64,7.13-7.13a10.6,10.6,0,0,1-2.62-12.07c2.74-5.84-6-11-8.7-5.09Z"/><path class="cls-1" d="M2992.73,401.25a9.75,9.75,0,0,1-1.79,3.28,9.49,9.49,0,0,1-3.67,2.62c-2.47,1.15-3.09,4.7-1.81,6.9,1.48,2.53,4.42,3,6.9,1.81a19.37,19.37,0,0,0,10.09-11.92,5,5,0,0,0-9.72-2.68Z"/><path class="cls-1" d="M2974.34,507.91a14.37,14.37,0,0,0,15,5.75,5,5,0,0,0-2.68-9.72q-.92.19-.22.06a8.62,8.62,0,0,1-1.05,0c.79.06-.76-.2-1-.28s-.33-.11,0,0a9.08,9.08,0,0,1-.91-.53c.76.52-1-1.1-.46-.37-1.64-2.17-4.35-3.3-6.9-1.81-2.14,1.25-3.46,4.71-1.81,6.9Z"/><path class="cls-1" d="M3076.49,475.88c.06,9.14,8.72,15.66,17.48,14,2.68-.5,4.2-3.73,3.52-6.2-.77-2.81-3.52-4-6.2-3.52-2,.37-4.71-2-4.72-4.29,0-6.48-10.12-6.5-10.08,0Z"/><path class="cls-1" d="M3077.59,430a30.62,30.62,0,0,0-4.52-15.35c-3.4-5.51-12.13-.45-8.7,5.09a20.21,20.21,0,0,1,3.15,10.26c.19,6.47,10.27,6.5,10.08,0Z"/><path class="cls-1" d="M1284,567.67c.62,8.53,6.91,16.41,15.67,17.6,2.69.37,5.41-.65,6.2-3.52.65-2.35-.81-5.83-3.52-6.2-4.13-.56-7.95-3.47-8.27-7.88a5.16,5.16,0,0,0-5-5c-2.57,0-5.24,2.31-5,5Z"/><path class="cls-1" d="M186.24,388.35a15.25,15.25,0,0,0,6.27,16.7c2.23,1.56,5.6.41,6.9-1.81a5.14,5.14,0,0,0-1.81-6.9A4.88,4.88,0,0,1,196,391c1.75-6.26-8-8.93-9.72-2.68Z"/><path class="cls-1" d="M284.53,96.13a19.16,19.16,0,0,0,15.32-9.45c3.25-5.63-5.45-10.71-8.7-5.09a8.81,8.81,0,0,1-6.62,4.46,5.17,5.17,0,0,0-5,5c0,2.55,2.31,5.27,5,5Z"/><path class="cls-1" d="M1406.07,732.64c-25.57-17.67-61.43-14.83-80.18,11.17-5.12,7.1-10.07,14.34-15.1,21.51l-74.37,105.91-59.29,84.44c-12,17-14.89,37.18-6.39,56.6,13.55,31,52.7,47.27,83.36,31.37,15.85-8.22,25.36-26.19,35.3-40.35L1324.66,953l2.38-3.39-6.9,1.81,36.92,23.66,85.19,54.61,96.7,62,70,44.88c4.52,2.9,9,5.84,13.57,8.7,19.08,12,44.35,14.17,63.76,1.53,22.89-14.9,29-44.29,17.84-68.42-5.71-12.38-15.47-21.37-26.73-28.59l-54.6-35-92.89-59.54-91.84-58.87-52.87-33.89-2.5-1.6,1.81,6.9,28.11-40c3.65-5.2,7.36-10.36,11-15.6a53.27,53.27,0,0,0,8.69-37.44c-2.35-17.25-12.3-32-26.2-42.1-5.25-3.83-10.28,4.91-5.09,8.7,20.93,15.28,28.84,44.22,13.57,66.21-9.34,13.45-18.82,26.8-28.23,40.19l-10.52,15c-1.61,2.29-.33,5.52,1.81,6.9l35.87,23,83.41,53.46,94.62,60.65,69.52,44.56c4.66,3,9.33,6,14,9,16.76,10.84,28,30.89,24,51.14-5.67,28.74-37.5,40.81-63,29.74-5.54-2.41-10.6-6-15.68-9.23l-60.93-39.05-92.55-59.33-89-57-50.22-32.19-2.38-1.52c-2.43-1.56-5.38-.35-6.9,1.81-18.08,25.75-35.94,51.66-54.25,77.25-18.44,25.78-56.23,21.65-75.76-.45-15.08-17.06-16.43-40.8-3.47-59.24l52.24-74.4,73.49-104.65L1332,752.63a74,74,0,0,1,5.5-7.31c10.29-11.36,26.25-16,41.21-13.41a56.18,56.18,0,0,1,22.3,9.44C1406.33,745,1411.38,736.31,1406.07,732.64Z"/><path class="cls-1" d="M1345.34,728.56c-8.55-2.1-17.59-2.85-26,.41s-14.48,9.64-19.63,16.8c-1.79,2.49-3.52,5-5.28,7.52l-32.8,46.7L1178.6,918.31c-3.2,4.55-6.42,9.09-9.59,13.66-11.21,16.13-12.76,34.77-2.09,51.63,3.46,5.47,12.19.41,8.7-5.09-9-14.16-7.06-28.32,2.28-41.72,2.57-3.69,5.16-7.35,7.75-11l34.15-48.63,78.89-112.34c3.05-4.35,6.09-8.71,9.16-13a48,48,0,0,1,7.7-8.85c7.86-6.76,17.45-7,27.12-4.62,6.3,1.55,9-8.17,2.68-9.72Z"/><path class="cls-1" d="M1325.37,944.19c-17-14.3-17.44-38.76-5.73-56.54,10.87-16.51,39.3-35.73,57.22-18.19,4.64,4.54,11.77-2.58,7.13-7.13-22.17-21.7-56-3.17-71.21,17.6-15.67,21.44-15.86,53.47,5.47,71.39,4.94,4.15,12.1-2.95,7.13-7.13Z"/><path class="cls-1" d="M1607.6,1103.18c13.31,13,28.92,22,48.22,20.09,6.39-.65,6.46-10.73,0-10.08-16.73,1.69-29.55-5.83-41.09-17.14-4.64-4.54-11.77,2.58-7.13,7.13Z"/><path class="cls-1" d="M1120,870.38c-11.59,3.38-11.61,22.27.41,25.08,6.31,1.48,9-8.24,2.68-9.72-1.23-.29-1.63-1-1.74-2.68s.47-2.71,1.32-3c6.22-1.81,3.57-11.54-2.68-9.72Z"/><path class="cls-1" d="M1168.17,797.24a5.7,5.7,0,0,1-6.53,4.43c-6.32-1.43-9,8.29-2.68,9.72,8.22,1.85,17-3.11,18.93-11.47,1.49-6.31-8.23-9-9.72-2.68Z"/><path class="cls-1" d="M1096.91,740.84c-11.89-.59-21.53,12-18,23.34,1.93,6.17,11.67,3.53,9.72-2.68a8.32,8.32,0,0,1,8.25-10.58c6.48.32,6.47-9.76,0-10.08Z"/><path class="cls-1" d="M1048.91,810.62a13.56,13.56,0,0,1-13.77,2.07c-5.89-2.57-11,6.12-5.09,8.7a24.18,24.18,0,0,0,26-3.64c5-4.16-2.18-11.26-7.13-7.13Z"/><path class="cls-1" d="M977.07,847.11c-7.4-.61-13.95,7.92-11.15,14.9,1,2.53,3.36,4.3,6.2,3.52,2.4-.66,4.54-3.66,3.52-6.2-.11-.27-.35-1.44-.24-.27,0-.48.22-1.23-.08-.31,0-.13.39-1.22.13-.59-.33.83.68-1.06.19-.35-.37.53.35-.35.44-.45q.56-.49.14-.13t.19-.07l-.45.16a5.43,5.43,0,0,1,.79-.23c-.83.21-.22.06.33.11,2.72.22,5-2.48,5-5a5.14,5.14,0,0,0-5-5Z"/><path class="cls-1" d="M1162.76,93a46.31,46.31,0,0,0,16.7-10.87c4.53-4.65-2.59-11.78-7.13-7.13a34.63,34.63,0,0,1-12.25,8.28c-2.54,1-4.29,3.38-3.52,6.2.67,2.42,3.65,4.51,6.2,3.52Z"/><path class="cls-1" d="M1248,448.79a16.72,16.72,0,0,0,14.95-1.6c5.43-3.5.39-12.23-5.09-8.7a7.27,7.27,0,0,1-7.18.58c-2.53-1-5.53,1.1-6.2,3.52-.79,2.86,1,5.2,3.52,6.2Z"/></g></g></svg>